<?xml version="1.0" encoding="UTF-8"?>
<svg width="33px" height="32px" viewBox="0 0 33 32" version="1.1" xmlns="http://www.w3.org/2000/svg" xmlns:xlink="http://www.w3.org/1999/xlink">
    <!-- Generator: Sketch 50.2 (55047) - http://www.bohemiancoding.com/sketch -->
    <title>locked funds</title>
    <desc>Created with Sketch.</desc>
    <defs></defs>
    <g id="Page-1" stroke="none" stroke-width="1" fill="none" fill-rule="evenodd" stroke-linecap="round" stroke-linejoin="round">
        <g id="KLEROS---judged2" transform="translate(-501.000000, -580.000000)" fill="#FFFFFF" stroke="#1A1B23">
            <g id="pop-up" transform="translate(400.000000, 130.000000)">
                <g id="info" transform="translate(60.000000, 423.000000)">
                    <g id="locked-funds" transform="translate(42.000000, 28.000000)">
                        <path d="M0.164143041,25.6007234 C0.365393128,24.4145065 3.50197477,23.4720573 7.34178449,23.4720573 C10.962355,23.4720573 13.9577085,24.309958 14.456662,25.4000514 L14.5216856,25.3991385 C14.5216856,25.4707147 14.5216856,25.5426265 14.5216856,25.6148739 C14.5269995,25.650366 14.5296862,25.6860733 14.5296862,25.7219769 C14.5296862,25.7578805 14.5269995,25.7935878 14.5216856,25.8290799 C14.5216856,26.3894085 14.5216856,26.9695549 14.5216856,27.5695193 C14.5216856,28.7017635 11.5140849,29.6611295 7.18790171,29.6611295 C2.8617185,29.6611295 0.15003965,28.5917482 0.15003965,27.5447794 C0.15003965,26.8468001 0.15003965,26.1988475 0.15003965,25.6009214 L0.164143041,25.6007234 Z" id="Combined-Shape"></path>
                        <path d="M7.34178449,27.9718965 C11.311553,27.9718965 14.5296862,26.9645732 14.5296862,25.7219769 C14.5296862,24.4793806 11.311553,23.4720573 7.34178449,23.4720573 C3.37201599,23.4720573 0.153882776,24.4793806 0.153882776,25.7219769 C0.153882776,26.9645732 3.37201599,27.9718965 7.34178449,27.9718965 Z" id="Oval-6"></path>
                        <path d="M0.164143041,20.439433 C0.365393128,19.2532161 3.50197477,18.310767 7.34178449,18.310767 C10.962355,18.310767 13.9577085,19.1486677 14.456662,20.2387611 L14.5216856,20.2378481 C14.5216856,20.3094244 14.5216856,20.3813362 14.5216856,20.4535835 C14.5269995,20.4890757 14.5296862,20.5247829 14.5296862,20.5606866 C14.5296862,20.5965902 14.5269995,20.6322974 14.5216856,20.6677896 C14.5216856,21.2281182 14.5216856,21.8082646 14.5216856,22.4082289 C14.5216856,23.5404732 11.5140849,24.4998392 7.18790171,24.4998392 C2.8617185,24.4998392 0.15003965,23.4304579 0.15003965,22.383489 C0.15003965,21.6855098 0.15003965,21.0375572 0.15003965,20.4396311 L0.164143041,20.439433 Z" id="Combined-Shape"></path>
                        <path d="M7.34178449,22.8106062 C11.311553,22.8106062 14.5296862,21.8032829 14.5296862,20.5606866 C14.5296862,19.3180903 11.311553,18.310767 7.34178449,18.310767 C3.37201599,18.310767 0.153882776,19.3180903 0.153882776,20.5606866 C0.153882776,21.8032829 3.37201599,22.8106062 7.34178449,22.8106062 Z" id="Oval-6"></path>
                        <path d="M0.164143041,15.2781427 C0.365393128,14.0919258 3.50197477,13.1494767 7.34178449,13.1494767 C10.962355,13.1494767 13.9577085,13.9873774 14.456662,15.0774708 L14.5216856,15.0765578 C14.5216856,15.1481341 14.5216856,15.2200459 14.5216856,15.2922932 C14.5269995,15.3277854 14.5296862,15.3634926 14.5296862,15.3993963 C14.5296862,15.4352999 14.5269995,15.4710071 14.5216856,15.5064993 C14.5216856,16.0668278 14.5216856,16.6469743 14.5216856,17.2469386 C14.5216856,18.3791829 11.5140849,19.3385489 7.18790171,19.3385489 C2.8617185,19.3385489 0.15003965,18.2691676 0.15003965,17.2221987 C0.15003965,16.5242195 0.15003965,15.8762668 0.15003965,15.2783407 L0.164143041,15.2781427 Z" id="Combined-Shape"></path>
                        <path d="M7.34178449,17.6493158 C11.311553,17.6493158 14.5296862,16.6419925 14.5296862,15.3993963 C14.5296862,14.1568 11.311553,13.1494767 7.34178449,13.1494767 C3.37201599,13.1494767 0.153882776,14.1568 0.153882776,15.3993963 C0.153882776,16.6419925 3.37201599,17.6493158 7.34178449,17.6493158 Z" id="Oval-6"></path>
                        <path d="M16.7882969,25.6770532 C16.989547,24.4908363 20.1261287,23.5483871 23.9659384,23.5483871 C27.5865089,23.5483871 30.5818624,24.3862878 31.0808159,25.4763812 L31.1458395,25.4754683 C31.1458395,25.5470445 31.1458395,25.6189563 31.1458395,25.6912037 C31.1511534,25.7266958 31.1538401,25.762403 31.1538401,25.7983067 C31.1538401,25.8342103 31.1511534,25.8699175 31.1458395,25.9054097 C31.1458395,26.4657383 31.1458395,27.0458847 31.1458395,27.645849 C31.1458395,28.7780933 28.1382388,29.7374593 23.8120556,29.7374593 C19.4858724,29.7374593 16.7741935,28.668078 16.7741935,27.6211092 C16.7741935,26.9231299 16.7741935,26.2751773 16.7741935,25.6772512 L16.7882969,25.6770532 Z" id="Combined-Shape"></path>
                        <path d="M23.9620953,28.0482263 C27.9318638,28.0482263 31.149997,27.040903 31.149997,25.7983067 C31.149997,24.5557104 27.9318638,23.5483871 23.9620953,23.5483871 C19.9923268,23.5483871 16.7741935,24.5557104 16.7741935,25.7983067 C16.7741935,27.040903 19.9923268,28.0482263 23.9620953,28.0482263 Z" id="Oval-6"></path>
                        <path d="M16.7882969,20.5157628 C16.989547,19.3295459 20.1261287,18.3870968 23.9659384,18.3870968 C27.5865089,18.3870968 30.5818624,19.2249975 31.0808159,20.3150909 L31.1458395,20.3141779 C31.1458395,20.3857542 31.1458395,20.457666 31.1458395,20.5299133 C31.1511534,20.5654055 31.1538401,20.6011127 31.1538401,20.6370164 C31.1538401,20.67292 31.1511534,20.7086272 31.1458395,20.7441194 C31.1458395,21.3044479 31.1458395,21.8845944 31.1458395,22.4845587 C31.1458395,23.616803 28.1382388,24.576169 23.8120556,24.576169 C19.4858724,24.576169 16.7741935,23.5067877 16.7741935,22.4598188 C16.7741935,21.7618396 16.7741935,21.1138869 16.7741935,20.5159608 L16.7882969,20.5157628 Z" id="Combined-Shape"></path>
                        <path d="M23.9620953,22.886936 C27.9318638,22.886936 31.149997,21.8796126 31.149997,20.6370164 C31.149997,19.3944201 27.9318638,18.3870968 23.9620953,18.3870968 C19.9923268,18.3870968 16.7741935,19.3944201 16.7741935,20.6370164 C16.7741935,21.8796126 19.9923268,22.886936 23.9620953,22.886936 Z" id="Oval-6"></path>
                        <g id="Group-15" transform="translate(17.096774, 0.000000)">
                            <path d="M3.87652948,8.07887007 C3.60901656,7.88112955 3.36431902,7.65511306 3.14701876,7.40532959 L2.05228031,7.40532959 L2.05228031,4.71248247 L2.0578819,4.71248247 C2.0541621,4.63814241 2.05228031,4.56332674 2.05228031,4.48807854 C2.05228031,2.00938121 4.09414074,0 6.61290323,0 C9.13166571,0 11.1735261,2.00938121 11.1735261,4.48807854 C11.1735261,4.56332674 11.1716443,4.63814241 11.1679246,4.71248247 L11.1735261,4.71248247 L11.1735261,7.40532959 L10.0787877,7.40532959 C9.86148743,7.65511306 9.6167899,7.88112955 9.34927697,8.07887007 L9.34927697,4.48807854 C9.34927697,3.00086014 8.12416072,1.79523142 6.61290323,1.79523142 C5.10164573,1.79523142 3.87652948,3.00086014 3.87652948,4.48807854 L3.87652948,8.07887007 Z M4.20926196,8.3029453 L9.01654449,8.3029453 C8.31863896,8.72970202 7.49501764,8.97615708 6.61290323,8.97615708 C5.73078881,8.97615708 4.90716749,8.72970202 4.20926196,8.3029453 Z" id="Combined-Shape"></path>
                            <path d="M2.1,6.85834502 L11.1258065,6.85834502 C12.2856044,6.85834502 13.2258065,7.79854705 13.2258065,8.95834502 L13.2258065,13.1454418 C13.2258065,14.3052398 12.2856044,15.2454418 11.1258065,15.2454418 L2.1,15.2454418 C0.940202025,15.2454418 -3.02054922e-16,14.3052398 -4.4408921e-16,13.1454418 L0,8.95834502 C-1.42034288e-16,7.79854705 0.940202025,6.85834502 2.1,6.85834502 Z" id="Rectangle-2"></path>
                            <path d="M5.88385946,11.0098177 L5.62275153,12.1556488 C5.53685659,12.5325852 5.77279235,12.9077842 6.14972882,12.9936792 C6.20075399,13.0053066 6.25292216,13.0111753 6.30525537,13.0111753 L6.95907751,13.0111753 C7.34567684,13.0111753 7.65907751,12.6977746 7.65907751,12.3111753 C7.65907751,12.2588421 7.65320879,12.2066739 7.64158135,12.1556488 L7.38047342,11.0098177" id="Line-5"></path>
                            <circle id="Oval-3" cx="6.60177976" cy="10.2314165" r="1.12903226"></circle>
                        </g>
                        <path d="M0.164143041,9.47169111 C0.365393128,8.28547421 3.50197477,7.34302505 7.34178449,7.34302505 C10.962355,7.34302505 13.9577085,8.18092574 14.456662,9.27101916 L14.5216856,9.27010621 C14.5216856,9.34168249 14.5216856,9.41359429 14.5216856,9.48584161 C14.5269995,9.52133378 14.5296862,9.557041 14.5296862,9.59294464 C14.5296862,9.62884828 14.5269995,9.6645555 14.5216856,9.70004767 C14.5216856,10.2603762 14.5216856,10.8405227 14.5216856,11.440487 C14.5216856,12.5727313 11.5140849,13.5320972 7.18790171,13.5320972 C2.8617185,13.5320972 0.15003965,12.462716 0.15003965,11.4157471 C0.15003965,10.7177679 0.15003965,10.0698152 0.15003965,9.47188912 L0.164143041,9.47169111 Z" id="Combined-Shape"></path>
                        <path d="M7.34178449,11.8428642 C11.311553,11.8428642 14.5296862,10.8355409 14.5296862,9.59294464 C14.5296862,8.35034836 11.311553,7.34302505 7.34178449,7.34302505 C3.37201599,7.34302505 0.153882776,8.35034836 0.153882776,9.59294464 C0.153882776,10.8355409 3.37201599,11.8428642 7.34178449,11.8428642 Z" id="Oval-6"></path>
                        <path d="M0.164143041,3.66523949 C0.365393128,2.4790226 3.50197477,1.53657344 7.34178449,1.53657344 C10.962355,1.53657344 13.9577085,2.37447412 14.456662,3.46456755 L14.5216856,3.4636546 C14.5216856,3.53523088 14.5216856,3.60714268 14.5216856,3.67939 C14.5269995,3.71488217 14.5296862,3.75058939 14.5296862,3.78649303 C14.5296862,3.82239667 14.5269995,3.85810389 14.5216856,3.89359606 C14.5216856,4.45392461 14.5216856,5.03407105 14.5216856,5.63403538 C14.5216856,6.76627966 11.5140849,7.72564563 7.18790171,7.72564563 C2.8617185,7.72564563 0.15003965,6.65626434 0.15003965,5.6092955 C0.15003965,4.91131627 0.15003965,4.26336361 0.15003965,3.66543751 L0.164143041,3.66523949 Z" id="Combined-Shape"></path>
                        <path d="M7.34178449,6.03641262 C11.311553,6.03641262 14.5296862,5.02908931 14.5296862,3.78649303 C14.5296862,2.54389675 11.311553,1.53657344 7.34178449,1.53657344 C3.37201599,1.53657344 0.153882776,2.54389675 0.153882776,3.78649303 C0.153882776,5.02908931 3.37201599,6.03641262 7.34178449,6.03641262 Z" id="Oval-6"></path>
                    </g>
                </g>
            </g>
        </g>
    </g>
</svg>